<svg xmlns="http://www.w3.org/2000/svg" width="306" height="318.896" viewBox="0 0 306 318.896">
  <g id="OBJECTS" transform="translate(-97.001 -73.979)">
    <g id="Group_1" data-name="Group 1">
      <path id="Path_1" data-name="Path 1" d="M284.237,78.02c-.457,2.306.58,4.944,9.514,9.958l.9.505.548,6.684-.664-.417a.579.579,0,0,0-.8.183l-.366.583a.58.58,0,0,0,.183.8l1.836,1.152.553,6.748-.407-.255a.58.58,0,0,0-.8.183l-.366.583a.581.581,0,0,0,.183.8l1.58.992.443,5.413,3.84,2.41,2.8-21.254c4.83,2.534,9.579,4.939,12.91,6.608l.356,7.032,2.554,1.6,1.791-6.767,2.152.487-1.375-1.726,5.317-4.554-2.553-1.6L317.881,96.9c-2.95-2.275-7.18-5.507-11.561-8.756l17.925-11.759-3.84-2.41-5.068,1.952-1.579-.991a.58.58,0,0,0-.8.183l-.366.583a.58.58,0,0,0,.183.8l.407.255L306.863,79.2l-1.835-1.153a.58.58,0,0,0-.8.183l-.366.583a.58.58,0,0,0,.183.8l.663.416-6.257,2.412q-.428-.3-.848-.6c-8.4-5.868-11.224-5.655-13.1-4.241A.685.685,0,0,0,284.237,78.02Z" fill="#2595ff"/>
      <path id="Path_2" data-name="Path 2" d="M330.863,122.23a33.263,33.263,0,0,1-7.85,20.4c-11.15,13.316-36.216,24.733-76.481,39.082-42.816,15.25-88.181,30.966-90.764,62.948A101.326,101.326,0,0,1,250,106.114c2.017,0,4,.066,5.984.183a100.959,100.959,0,0,1,64.748,28.632C324.7,132.263,329.113,128.113,330.863,122.23Z" fill="#db7112"/>
      <path id="Path_3" data-name="Path 3" d="M229.549,319.857c-68.448-35.316-38.049-79.148,30.5-109.78C187.484,256.459,205.716,295.824,229.549,319.857Z" fill="#ff8619"/>
      <path id="Path_4" data-name="Path 4" d="M312.813,163.262c-.6.516-1.233,1.016-1.866,1.533-39.983,33.182-94.031,45.782-121.93,77.331-21.566,24.4-14.35,41.432-10.683,47.949-21.266-18.517-20.55-48.566,12.633-69.082C224.149,200.494,267,190.227,312.813,163.262Z" fill="#2595ff"/>
      <path id="Path_5" data-name="Path 5" d="M330.863,122.23a33.263,33.263,0,0,1-7.85,20.4c-11.15,13.316-36.216,24.733-76.481,39.082-42.816,15.25-88.181,30.966-90.764,62.948A101.326,101.326,0,0,1,250,106.114c2.017,0,4,.066,5.984.183-45.516.083-89.248,43.4-84.765,86.814,12.333-37.032,103.3-31.966,149.513-58.182C324.7,132.263,329.113,128.113,330.863,122.23Z" fill="#ff8619"/>
      <path id="Path_6" data-name="Path 6" d="M342.545,166.2c9.5-26.073,2.222-49.666-16.548-61.514,38.58,44.68-28.867,85.32-79.147,127.088-26.155,21.728-30.606,57.771-3.48,71.611A41.2,41.2,0,0,0,270.3,306.7a101.322,101.322,0,0,0,72.241-140.5Z" fill="#2595ff"/>
      <path id="Path_7" data-name="Path 7" d="M342.545,166.2c-14.421,34.724-82.572,80.208-90.589,97.063-12.34,25.944,21.489,36.6,47.848,17.021-49.975-2.979,42.054-44.812,50.99-83.109" fill="#238aed"/>
      <path id="Path_8" data-name="Path 8" d="M229.549,319.857c-59.015-46.515-24.116-77.164,30.5-109.78C187.484,256.459,205.716,295.824,229.549,319.857Z" fill="#db7112"/>
      <path id="Path_9" data-name="Path 9" d="M310.947,164.795c-39.983,33.182-94.031,45.782-121.93,77.331-21.566,24.4-14.35,41.432-10.683,47.949C132.569,222.66,264.1,202.11,310.947,164.795Z" fill="#238aed"/>
    </g>
    <text id="RIZEKTrips" transform="translate(250.001 378.875)" fill="#606060" font-size="54.226" font-family="Montserrat-Medium, Montserrat" font-weight="500"><tspan x="-152.863" y="0">RIZEK</tspan><tspan y="0" font-family="Montserrat-Bold, Montserrat" font-weight="700">Trips</tspan></text>
  </g>
</svg>
